<?xml version="1.0" encoding="UTF-8" standalone="no"?>
<!DOCTYPE svg PUBLIC "-//W3C//DTD SVG 1.1//EN" "http://www.w3.org/Graphics/SVG/1.1/DTD/svg11.dtd">
<svg width="100%" height="100%" viewBox="0 0 93 93" version="1.1" xmlns="http://www.w3.org/2000/svg" xmlns:xlink="http://www.w3.org/1999/xlink" xml:space="preserve" xmlns:serif="http://www.serif.com/" style="fill-rule:evenodd;clip-rule:evenodd;stroke-linejoin:round;stroke-miterlimit:2;">
    <g id="Artboard1" transform="matrix(0.734209,0,0,0.734209,-2.90437,-0.739979)">
        <rect x="3.956" y="1.008" width="125.911" height="125.911" style="fill:none;"/>
        <g transform="matrix(0.38265,0,0,0.38265,40.803,0.639657)">
            <g transform="matrix(1,0,0,1,-26.89,-11.72)">
                <path d="M149.09,84.63C154.29,77.83 155.79,66.33 149.79,51.83C130.49,48.13 115.89,37.73 101.19,27.23L115,99.73C114.89,99.73 141.19,95 149.09,84.63ZM156.99,43.73C168.79,97.33 161.39,170.13 95.59,186.83C37.39,168.43 21.39,103.13 31.39,43.63C60.09,35.13 70.29,30.33 96.49,13.33C96.49,13.33 129.39,37.53 157,43.73L156.99,43.73ZM37.89,51.33C35.69,61.73 35.09,75.33 40.09,82.33C47.39,92.53 67.49,98.83 79.59,99.63L92.29,27.13C92.19,27.13 61.69,47 37.89,51.33ZM62.09,152C74.09,153.7 78.09,108.2 78.09,108.2C62.59,107.6 41.09,97.9 40.09,106.5C39.09,115.1 51.19,147 62.09,152ZM94.19,174.1C106.79,174.2 105.79,152.2 103.29,133.2C101.59,120.3 101.29,113.4 100.99,109.2C100.99,109.1 87.89,109.1 87.79,109.1C87.69,109.1 76.89,174 94.19,174.13L94.19,174.1ZM129.59,152C134.59,152.2 152.39,119.3 149.29,105.8C147.59,98.7 126.69,106.7 116.59,108C116.49,108 120.09,152.13 129.59,152ZM95.59,49L88.39,100.2C88.39,100.2 100.59,100.9 101.09,100.2L95.59,49Z" style="fill:rgb(240,246,252);fill-rule:nonzero;"/>
            </g>
            <g transform="matrix(1,0,0,1,-26.89,-11.72)">
                <path d="M60.89,88.53C60.49,88.53 60.19,88.33 60.19,87.93C60.058,87.288 59.891,86.654 59.69,86.03C59.49,85.33 59.29,84.73 59.09,84.13L51.49,62.73C51.19,62.03 50.99,61.33 50.69,60.63C50.39,59.93 50.09,59.33 49.79,58.63C49.593,58.08 49.246,57.595 48.79,57.23C48.506,56.997 48.157,56.857 47.79,56.83L46.99,56.93C46.983,56.93 46.976,56.93 46.97,56.93C46.597,56.93 46.29,56.623 46.29,56.25C46.29,56.244 46.29,56.237 46.29,56.23L46.29,54.53C46.29,54.527 46.29,54.523 46.29,54.52C46.29,54.087 46.647,53.73 47.08,53.73C47.083,53.73 47.087,53.73 47.09,53.73L58.69,53.73C59.086,53.747 59.42,54.04 59.49,54.43L59.49,56C59.49,56.007 59.49,56.014 59.49,56.02C59.49,56.393 59.183,56.7 58.81,56.7C58.804,56.7 58.797,56.7 58.79,56.7L58.29,56.7L58.29,56.9C58.308,57.339 58.375,57.775 58.49,58.2C58.69,58.9 58.89,59.8 59.29,60.9C59.69,62.2 60.09,63.4 60.59,64.8C61.09,66.2 61.59,67.7 62.09,69.3C62.59,70.9 63.29,72.8 63.89,74.8C64.39,76.3 64.89,77.9 65.49,79.6L72.19,62.6C72.577,61.835 72.879,61.03 73.09,60.2C73.29,59.5 73.49,58.8 73.59,58.3C73.69,57.8 73.59,57.3 73.39,57.1C73.19,56.9 72.79,56.8 72.19,56.8L70.89,56.8C70.494,56.783 70.16,56.49 70.09,56.1L70.09,54.5C70.09,54.493 70.09,54.486 70.09,54.48C70.09,54.107 70.397,53.8 70.77,53.8C70.776,53.8 70.783,53.8 70.79,53.8L80.89,53.8C80.893,53.8 80.897,53.8 80.9,53.8C81.333,53.8 81.69,54.157 81.69,54.59C81.69,54.593 81.69,54.597 81.69,54.6L81.69,56.3C81.69,56.303 81.69,56.307 81.69,56.31C81.69,56.743 81.333,57.1 80.9,57.1C80.897,57.1 80.893,57.1 80.89,57.1L80.39,57.1L80.09,57.4C79.758,57.915 79.457,58.449 79.19,59C78.89,59.6 78.59,60.3 78.19,61L77.19,63.2C76.89,63.9 76.59,64.6 76.29,65.2C76.059,65.653 75.859,66.121 75.69,66.6C75.49,67.1 75.09,67.9 74.59,69.2C74.09,70.5 73.39,72.1 72.69,73.8C71.99,75.5 71.19,77.4 70.39,79.3C69.59,81.2 68.89,82.9 68.19,84.5C67.99,85 67.79,85.6 67.49,86.4C67.281,86.987 67.114,87.589 66.99,88.2C66.893,88.518 66.619,88.753 66.29,88.8L60.89,88.5L60.89,88.53Z" style="fill:rgb(240,246,252);fill-rule:nonzero;"/>
            </g>
            <g transform="matrix(1,0,0,1,-26.89,-11.72)">
                <path d="M129.29,88.83C128.051,88.83 126.813,88.729 125.59,88.53C124.39,88.33 123.19,88.23 121.99,88.03C121.833,88.027 121.686,87.953 121.59,87.83L121.09,87.33C120.965,87.193 120.893,87.015 120.89,86.83L120.69,79.73C120.69,79.723 120.69,79.716 120.69,79.71C120.69,79.337 120.997,79.03 121.37,79.03C121.376,79.03 121.383,79.03 121.39,79.03L123.39,79.03C123.397,79.03 123.404,79.03 123.41,79.03C123.783,79.03 124.09,79.337 124.09,79.71C124.09,79.716 124.09,79.723 124.09,79.73L124.09,80.83C124.063,81.379 124.166,81.928 124.39,82.43C124.564,82.856 124.838,83.234 125.19,83.53C125.766,83.963 126.407,84.3 127.09,84.53C127.939,84.761 128.811,84.895 129.69,84.93C131.171,85.024 132.634,84.56 133.79,83.63C134.788,82.833 135.346,81.605 135.29,80.33C135.305,79.54 135.058,78.766 134.59,78.13C133.964,77.317 133.182,76.637 132.29,76.13C131.89,75.93 131.49,75.63 130.99,75.33C130.49,75.03 129.89,74.73 129.29,74.43L127.59,73.53C127.09,73.23 126.59,73.03 126.19,72.83C124.581,71.94 123.156,70.752 121.99,69.33C120.766,67.88 120.124,66.026 120.19,64.13C120.153,62.635 120.497,61.155 121.19,59.83C121.861,58.533 122.778,57.378 123.89,56.43C125.08,55.407 126.48,54.656 127.99,54.23C129.639,53.705 131.359,53.435 133.09,53.43C134.126,53.44 135.161,53.507 136.19,53.63C137.27,53.799 138.338,54.032 139.39,54.33C139.59,54.33 139.69,54.43 139.79,54.63L140.19,55.23C140.27,55.347 140.305,55.489 140.29,55.63L140.29,61.83C140.29,61.833 140.29,61.837 140.29,61.84C140.29,62.273 139.933,62.63 139.5,62.63C139.497,62.63 139.493,62.63 139.49,62.63L137.49,62.63C137.487,62.63 137.483,62.63 137.48,62.63C137.047,62.63 136.69,62.273 136.69,61.84C136.69,61.837 136.69,61.833 136.69,61.83L136.69,60.13C136.725,59.623 136.498,59.132 136.09,58.83C135.556,58.413 134.944,58.107 134.29,57.93C133.477,57.692 132.637,57.557 131.79,57.53C130.482,57.464 129.197,57.893 128.19,58.73C126.622,60.155 126.444,62.593 127.79,64.23C128.76,65.239 129.914,66.054 131.19,66.63C131.569,66.87 131.971,67.071 132.39,67.23C132.91,67.457 133.412,67.725 133.89,68.03C134.39,68.33 134.99,68.53 135.49,68.83C135.868,69.07 136.271,69.271 136.69,69.43C138.216,70.315 139.571,71.466 140.69,72.83C141.828,74.283 142.429,76.085 142.39,77.93C142.403,78.04 142.366,78.15 142.29,78.23C142.267,79.718 141.926,81.184 141.29,82.53C140.644,83.9 139.685,85.099 138.49,86.03C137.255,87.066 135.828,87.848 134.29,88.33C132.639,88.626 130.967,88.793 129.29,88.83Z" style="fill:rgb(240,246,252);fill-rule:nonzero;"/>
            </g>
            <g transform="matrix(1,0,0,1,-26.89,-11.72)">
                <path d="M59.39,135.33C58.553,135.313 57.719,135.246 56.89,135.13C56.083,135.045 55.281,134.912 54.49,134.73C54.333,134.727 54.186,134.653 54.09,134.53L53.79,134.13C53.665,133.993 53.593,133.815 53.59,133.63L53.39,128.93C53.39,128.923 53.39,128.916 53.39,128.91C53.39,128.537 53.697,128.23 54.07,128.23C54.076,128.23 54.083,128.23 54.09,128.23L55.49,128.23C55.497,128.23 55.504,128.23 55.51,128.23C55.883,128.23 56.19,128.537 56.19,128.91C56.19,128.916 56.19,128.923 56.19,128.93L56.19,129.73C56.188,130.073 56.256,130.414 56.39,130.73C56.493,130.976 56.667,131.185 56.89,131.33C57.221,131.646 57.639,131.855 58.09,131.93C58.64,132.101 59.216,132.168 59.79,132.13C60.721,132.156 61.635,131.875 62.39,131.33C62.979,130.836 63.311,130.099 63.29,129.33C63.313,128.863 63.171,128.403 62.89,128.03C62.482,127.501 61.972,127.059 61.39,126.73C61.19,126.63 60.89,126.43 60.49,126.23C60.09,126.03 59.79,125.83 59.39,125.63L58.29,125.03C57.89,124.83 57.59,124.63 57.39,124.53C56.299,123.893 55.32,123.082 54.49,122.13C53.693,121.094 53.239,119.836 53.19,118.53C53.158,117.486 53.4,116.452 53.89,115.53C54.378,114.625 55.021,113.812 55.79,113.13C56.594,112.419 57.553,111.905 58.59,111.63C59.717,111.254 60.903,111.085 62.09,111.13C62.792,111.108 63.494,111.142 64.19,111.23C64.79,111.33 65.49,111.43 66.29,111.63C66.49,111.63 66.59,111.73 66.69,111.93L66.99,112.33C67.115,112.467 67.187,112.645 67.19,112.83L67.19,116.93C67.19,116.933 67.19,116.937 67.19,116.94C67.19,117.373 66.833,117.73 66.4,117.73C66.397,117.73 66.393,117.73 66.39,117.73L65.09,117.73C65.087,117.73 65.083,117.73 65.08,117.73C64.647,117.73 64.29,117.373 64.29,116.94C64.29,116.937 64.29,116.933 64.29,116.93L64.29,115.83C64.297,115.564 64.187,115.308 63.99,115.13C63.658,114.872 63.287,114.669 62.89,114.53C62.365,114.408 61.829,114.341 61.29,114.33C60.494,114.268 59.704,114.519 59.09,115.03C58.572,115.483 58.279,116.142 58.29,116.83C58.27,117.392 58.488,117.937 58.89,118.33C59.519,118.968 60.266,119.477 61.09,119.83C61.346,119.983 61.614,120.117 61.89,120.23C62.213,120.417 62.547,120.584 62.89,120.73C63.237,120.938 63.606,121.105 63.99,121.23C64.246,121.383 64.514,121.517 64.79,121.63C65.839,122.203 66.758,122.986 67.49,123.93C68.298,124.953 68.723,126.227 68.69,127.53L68.69,127.73C68.66,128.735 68.421,129.722 67.99,130.63C67.529,131.552 66.882,132.369 66.09,133.03C65.231,133.738 64.247,134.281 63.19,134.63C61.979,135.103 60.69,135.341 59.39,135.33Z" style="fill:rgb(240,246,252);fill-rule:nonzero;"/>
            </g>
            <g transform="matrix(1,0,0,1,-26.89,-11.72)">
                <path d="M124.19,134.73C123.802,134.728 123.484,134.408 123.484,134.02C123.484,133.99 123.486,133.96 123.49,133.93L123.49,132.83C123.49,132.827 123.49,132.823 123.49,132.82C123.49,132.387 123.847,132.03 124.28,132.03C124.283,132.03 124.287,132.03 124.29,132.03L124.69,132.03C124.686,131.89 124.72,131.752 124.79,131.63C124.764,131.227 124.798,130.823 124.89,130.43C124.89,130.13 124.99,129.83 124.99,129.43L124.99,114.53C124.99,114.33 124.99,114.23 124.89,114.13C124.79,114.03 124.89,114.03 124.79,113.93C124.673,113.85 124.531,113.815 124.39,113.83L123.59,113.83C123.194,113.813 122.86,113.52 122.79,113.13L122.79,112C122.79,111.993 122.79,111.986 122.79,111.98C122.79,111.607 123.097,111.3 123.47,111.3C123.476,111.3 123.483,111.3 123.49,111.3L131.49,111.3C131.886,111.317 132.22,111.61 132.29,112L132.29,113.1C132.29,113.107 132.29,113.114 132.29,113.12C132.29,113.493 131.983,113.8 131.61,113.8C131.604,113.8 131.597,113.8 131.59,113.8L130.79,113.8C130.789,113.972 130.755,114.141 130.69,114.3C130.701,114.603 130.667,114.907 130.59,115.2C130.603,115.636 130.569,116.071 130.49,116.5C130.507,117.002 130.473,117.505 130.39,118L130.39,130.1C130.39,130.4 130.39,130.6 130.49,130.7C130.535,130.921 130.684,131.108 130.89,131.2C131.37,131.373 131.881,131.441 132.39,131.4C133.025,131.417 133.66,131.383 134.29,131.3C134.772,131.227 135.242,131.092 135.69,130.9C136.019,130.748 136.323,130.546 136.59,130.3C136.8,130.003 136.937,129.66 136.99,129.3L137.19,128.3C137.251,127.961 137.545,127.709 137.89,127.7L137.99,127.7L139.29,128C139.487,128.038 139.664,128.144 139.79,128.3C139.871,128.489 139.906,128.695 139.89,128.9L138.89,133.7C138.887,133.857 138.813,134.004 138.69,134.1L138.29,134.4C138.153,134.525 137.975,134.597 137.79,134.6C137.89,134.93 124.19,134.73 124.19,134.73Z" style="fill:rgb(240,246,252);fill-rule:nonzero;"/>
            </g>
        </g>
    </g>
</svg>
